<?xml version="1.0" encoding="iso-8859-1"?>
<!-- Generator: Adobe Illustrator 19.0.0, SVG Export Plug-In . SVG Version: 6.00 Build 0)  -->
<svg version="1.1" id="Layer_1" xmlns="http://www.w3.org/2000/svg" xmlns:xlink="http://www.w3.org/1999/xlink" x="0px" y="0px"
	 viewBox="0 0 502 502" style="enable-background:new 0 0 502 502;" xml:space="preserve">
<g>
	<g>
		<g>
			<path d="M492,241H369.382V34.236c0-5.522-4.478-10-10-10H142.618c-5.523,0-10,4.478-10,10V241H10c-5.523,0-10,4.478-10,10
				v216.764c0,5.522,4.477,10,10,10h216.764c5.523,0,10-4.478,10-10V261h28.473v206.764c0,5.522,4.478,10,10,10H492
				c5.522,0,10-4.478,10-10V251C502,245.478,497.522,241,492,241z M216.764,457.764H20V261h196.764V457.764z M152.618,241V44.236
				h196.764V241H152.618z M482,457.764H285.236V261H482V457.764z"/>
			<path d="M260.1,87.821c-1.625-3.566-5.183-5.854-9.101-5.854c-3.918,0-7.476,2.288-9.1,5.854l-44.66,98.034
				c-2.29,5.025-0.071,10.956,4.955,13.246c5.026,2.29,10.956,0.07,13.246-4.955l12.219-26.823h46.681l12.219,26.823
				c1.678,3.683,5.309,5.857,9.106,5.857c1.387-0.001,2.796-0.29,4.14-0.902c5.026-2.29,7.244-8.221,4.955-13.246L260.1,87.821z
				 M236.771,147.323L251,116.089l14.229,31.234H236.771z"/>
			<path d="M96.324,418.943h3.695c12.364,0,24.019-0.098,33.439-4.142c12.352-5.304,18.614-16.253,18.614-32.546
				c0-14.137-6.5-21.725-14.393-26.453c3.843-5.463,5.966-11.72,5.966-18.206c0-36.688-29.609-36.688-45.516-36.688h-1.805v0.001
				c-5.523,0-10,4.478-10,10v98.034C86.324,414.465,90.801,418.943,96.324,418.943z M106.324,321.102
				c14.337,0.805,17.322,4.473,17.322,16.495c0,3.769-2.091,7.439-5.835,10.429c-3.692-0.951-7.549-1.631-11.487-2.029V321.102z
				 M106.324,366.125c3.484,0.47,6.842,1.227,9.942,2.275c0,0,0.001,0,0.002,0.001c13.885,4.694,15.806,6.378,15.806,13.854
				c-0.001,11.376-4.073,13.124-6.505,14.169c-4.515,1.938-11.461,2.38-19.245,2.484V366.125z"/>
			<path d="M335.766,359.927c0,33.143,25.01,60.106,55.75,60.106c12.213,0,23.81-4.179,33.538-12.084
				c4.286-3.483,4.937-9.781,1.454-14.067c-3.483-4.286-9.782-4.935-14.067-1.454c-6.123,4.976-13.358,7.605-20.925,7.605
				c-19.713,0-35.75-17.991-35.75-40.106s16.037-40.106,35.75-40.106c7.566,0,14.802,2.63,20.925,7.605
				c4.287,3.483,10.584,2.832,14.067-1.454c3.482-4.286,2.832-10.584-1.454-14.067c-9.729-7.905-21.325-12.084-33.538-12.084
				C360.775,299.82,335.766,326.784,335.766,359.927z"/>
			<path d="M306,291h49c5.522,0,10-4.478,10-10c0-5.522-4.478-10-10-10h-49c-5.522,0-10,4.478-10,10
				C296,286.522,300.478,291,306,291z"/>
			<path d="M385,291h15c5.522,0,10-4.478,10-10c0-5.522-4.478-10-10-10h-15c-5.522,0-10,4.478-10,10
				C375,286.522,379.478,291,385,291z"/>
		</g>
	</g>
</g>
<g>
</g>
<g>
</g>
<g>
</g>
<g>
</g>
<g>
</g>
<g>
</g>
<g>
</g>
<g>
</g>
<g>
</g>
<g>
</g>
<g>
</g>
<g>
</g>
<g>
</g>
<g>
</g>
<g>
</g>
</svg>
