<?xml version="1.0" encoding="iso-8859-1"?>
<!-- Generator: Adobe Illustrator 16.0.0, SVG Export Plug-In . SVG Version: 6.00 Build 0)  -->
<!DOCTYPE svg PUBLIC "-//W3C//DTD SVG 1.1//EN" "http://www.w3.org/Graphics/SVG/1.1/DTD/svg11.dtd">
<svg version="1.1" id="Capa_1" xmlns="http://www.w3.org/2000/svg" xmlns:xlink="http://www.w3.org/1999/xlink" x="0px" y="0px"
	 width="32.045px" height="32.044px" viewBox="0 0 32.045 32.044" style="enable-background:new 0 0 32.045 32.044;"
	 xml:space="preserve">
<g>
	<g>
		<polygon points="6.758,26.042 6.758,24.944 2.56,24.944 1.067,18.976 0,19.244 1.699,26.042 2.561,26.042 1.457,28.474 
			2.125,28.776 3.365,26.042 5.186,26.042 6.377,28.772 7.05,28.477 5.985,26.042 		"/>
		<polygon points="30.346,25.998 32.045,19.196 30.98,18.93 29.486,24.899 25.288,24.899 25.288,25.998 26.062,25.998 
			24.996,28.432 25.669,28.726 26.861,25.998 28.682,25.998 29.922,28.731 30.589,28.428 29.486,25.998 		"/>
		<polygon points="9.904,23.123 9.904,28.983 10.337,28.983 10.337,23.123 10.184,23.123 		"/>
		<polygon points="25.532,24.566 27.052,24.566 27.555,24.566 27.898,24.566 28.777,24.566 27.32,17.332 24.898,17.332 
			23.234,20.003 23.298,19.856 23.223,19.973 21.382,19.24 20.996,20.167 11.028,20.16 10.663,19.285 8.824,20.02 7.146,17.376 
			4.727,17.376 3.267,24.612 4.146,24.612 4.491,24.612 4.995,24.612 6.514,24.612 6.607,24.612 7.445,24.612 7.981,24.612 
			7.981,23.123 7.223,23.123 7.223,23.125 6.314,23.125 7.346,19.776 7.7,20.344 7.431,20.344 7.431,21.517 8.164,21.517 
			8.164,23.123 8.164,24.612 8.164,28.983 8.421,28.983 9.722,28.983 9.722,23.123 9.722,21.517 22.505,21.517 22.505,23.076 
			22.505,28.983 23.625,28.983 24.062,28.983 24.062,24.566 24.062,23.076 24.062,21.517 24.721,21.517 24.721,20.344 
			24.316,20.344 24.7,19.73 25.73,23.078 24.823,23.078 24.823,23.076 24.246,23.076 24.246,24.566 24.602,24.566 25.438,24.566 		
			"/>
		<polygon points="21.711,23.076 21.711,28.983 22.32,28.983 22.32,23.076 21.863,23.076 		"/>
		<path d="M5.825,13.706c-0.041,0.086-0.084,0.175-0.114,0.265c-0.037,0.114-0.065,0.237-0.085,0.36
			c-0.112,0.729,0.147,1.426,0.632,1.911c0.014,0.014,0.024,0.028,0.037,0.041c0.038,0.036,0.08,0.065,0.12,0.1
			c0.077,0.065,0.156,0.13,0.243,0.185c0.003,0.002,0.006,0.003,0.009,0.006c0.24,0.149,0.512,0.251,0.803,0.294
			c0.007,0.002,0.014,0.006,0.022,0.006c0.025,0.006,0.05,0.002,0.075,0.006C7.641,16.886,7.714,16.9,7.789,16.9
			c0.025,0,0.048-0.006,0.071-0.008c0.117-0.002,0.23-0.016,0.343-0.033c0.006-0.002,0.013-0.002,0.02-0.004
			c0.912-0.164,1.663-0.881,1.813-1.848c0.036-0.243,0.021-0.481-0.017-0.711l0.543-0.549l-0.758-0.406l0.281-0.795l-1.022,0.128
			l-0.307-1.011l-0.969,0.743l-0.533-0.852L6.796,12.5L5.809,12l0.258,0.937l-0.789,0.096L5.825,13.706z"/>
		<path d="M22.923,12.674L21.9,12.545l0.281,0.795l-0.758,0.406l0.542,0.549c-0.038,0.229-0.054,0.468-0.017,0.711
			c0.188,1.218,1.326,2.053,2.543,1.865c0.211-0.031,0.402-0.1,0.589-0.186c0.002-0.001,0.005-0.003,0.009-0.004
			c0.104-0.049,0.202-0.1,0.297-0.161c0.088-0.058,0.17-0.121,0.25-0.19c0.012-0.011,0.024-0.02,0.037-0.031
			c0.396-0.356,0.653-0.856,0.694-1.419c0.004-0.043,0.011-0.085,0.013-0.129c0-0.009,0.002-0.017,0.002-0.025
			c0-0.027-0.007-0.055-0.009-0.082c0-0.104,0-0.207-0.017-0.313c-0.02-0.123-0.047-0.246-0.084-0.36
			c-0.03-0.09-0.074-0.179-0.114-0.265l0.548-0.673l-0.787-0.095L26.176,12l-0.986,0.5l-0.457-0.946L24.2,12.406l-0.972-0.743
			L22.923,12.674z"/>
		<path d="M10.446,10.14l-1.1,1.923L9.82,11.99c0.031-0.006,3.194-0.495,5.365-1.139c0.333-0.099,0.646-0.206,0.944-0.32
			c0.299,0.114,0.611,0.222,0.944,0.32c2.171,0.644,5.334,1.133,5.364,1.139l0.476,0.073l-1.101-1.923
			c1.414-0.743,2.252-1.902,2.252-3.134c0.002-2.174-2.571-3.944-5.733-3.944c-0.78,0-1.523,0.108-2.201,0.303
			c-0.679-0.195-1.422-0.303-2.201-0.303c-3.162,0-5.735,1.77-5.735,3.944C8.193,8.238,9.031,9.397,10.446,10.14z M18.331,3.525
			c2.905,0,5.272,1.563,5.272,3.481c0,1.113-0.828,2.17-2.213,2.826l-0.227,0.107l0.867,1.515c-0.965-0.162-3.188-0.562-4.827-1.049
			c-0.131-0.039-0.285-0.088-0.448-0.143c1.859-0.841,2.907-1.983,2.907-3.257c0-1.411-1.086-2.648-2.711-3.346
			C17.396,3.582,17.852,3.525,18.331,3.525z"/>
	</g>
</g>
<g>
</g>
<g>
</g>
<g>
</g>
<g>
</g>
<g>
</g>
<g>
</g>
<g>
</g>
<g>
</g>
<g>
</g>
<g>
</g>
<g>
</g>
<g>
</g>
<g>
</g>
<g>
</g>
<g>
</g>
</svg>
