<?xml version="1.0" encoding="iso-8859-1"?>
<!-- Generator: Adobe Illustrator 16.0.0, SVG Export Plug-In . SVG Version: 6.00 Build 0)  -->
<!DOCTYPE svg PUBLIC "-//W3C//DTD SVG 1.1//EN" "http://www.w3.org/Graphics/SVG/1.1/DTD/svg11.dtd">
<svg version="1.1" id="Capa_1" xmlns="http://www.w3.org/2000/svg" xmlns:xlink="http://www.w3.org/1999/xlink" x="0px" y="0px"
	 width="29.095px" height="29.095px" viewBox="0 0 29.095 29.095" style="enable-background:new 0 0 29.095 29.095;"
	 xml:space="preserve">
<g>
	<g>
		<path d="M10.594,4.476c-0.05,0.166-0.103,0.332-0.13,0.506c-0.036,0.216-0.056,0.44-0.056,0.666c0,2.236,1.811,4.048,4.048,4.048
			c2.232,0,4.046-1.812,4.046-4.048c0-0.447-0.091-0.869-0.224-1.271l0.822-1.134l-1.473-0.519l0.289-1.504l-1.801,0.514L15.292,0
			l-1.537,1.602l-1.189-1.381l-0.561,1.822l-1.91-0.625l0.722,1.608l-1.392,0.39L10.594,4.476z"/>
		<path d="M18.149,16.184l0.012-2.624l5.73-6.92l-1.742-1.441l-4.42,5.336l-1.27-0.23c0,0-0.555,1.701-2.078,1.791
			c-1.524,0.088-2.101-1.791-2.101-1.791L9.835,10.88l-1.961,5.304H1.507v1.928h1.159v10.983h0.942V18.111h7.232l0.014,1.361H9.325
			v0.661h1.312v8.457h2.897v-8.457h1.917v8.457h2.898v-8.457h1.141v-0.661h-1.342l0.002-1.361H25.2v10.983h0.94V18.111h1.447v-1.928
			H18.149z M9.91,16.184l0.882-2.455l0.027,2.455H9.91z"/>
	</g>
</g>
<g>
</g>
<g>
</g>
<g>
</g>
<g>
</g>
<g>
</g>
<g>
</g>
<g>
</g>
<g>
</g>
<g>
</g>
<g>
</g>
<g>
</g>
<g>
</g>
<g>
</g>
<g>
</g>
<g>
</g>
</svg>
